# xmcd
#
# Track frame offsets:
#	150
#	14728
#	31921
#	48368
#	63782
#	80649
#	93739
#	106362
#	120797
#	136701
#	153534
#	170576
#	188245
#	205811
#
# Disc length: 2971 seconds
#
# Revision: 1
# Processed by: cddbd v1.5.2PL0 Copyright (c) Steve Scherf et al.
# Submitted via: EasyCDDAExtractor 6.5.0.1
#
DISCID=b50b990e
DTITLE=LELAND MARTIN - Workin' Class
DYEAR=1900
DGENRE=Country
TTITLE0=FAST
TTITLE1=WORKIN' CLASS
TTITLE2=LITTLE TUFF
TTITLE3=A MILLION REASONS
TTITLE4=WANNA BE TRUCKER
TTITLE5=ROCK and ROLL FEVER
TTITLE6=I LOVE YOU NEONA
TTITLE7=BEVERLY'S HILLBILLY
TTITLE8=MILES BETWEEN US
TTITLE9=I LOVE YOU MORE THAN LIFE ITSELF
TTITLE10=A TRUCKER'S PHONE CALL
TTITLE11=SCALE HOUSE BLUES
TTITLE12=TRUCKER'S DJ
TTITLE13=BEGGIN' FOR MERCY
EXTD=
EXTT0=
EXTT1=
EXTT2=
EXTT3=
EXTT4=
EXTT5=
EXTT6=
EXTT7=
EXTT8=
EXTT9=
EXTT10=
EXTT11=
EXTT12=
EXTT13=
PLAYORDER=
